<?xml version="1.0" standalone="no"?><!-- Generator: Gravit.io --><svg xmlns="http://www.w3.org/2000/svg" xmlns:xlink="http://www.w3.org/1999/xlink" style="isolation:isolate" viewBox="0 0 48 48" width="48" height="48"><defs><clipPath id="_clipPath_GxWbbRYmoQpgJdaIxfXfHk6DZtLO1mjH"><rect width="48" height="48"/></clipPath></defs><g clip-path="url(#_clipPath_GxWbbRYmoQpgJdaIxfXfHk6DZtLO1mjH)"><g id="g4136"><path d=" M 48 0 L 48 1 L 3.5 1 C 2.392 1 1.063 1.673 1.063 2.781 L 1 44.813 C 1 45.92 2.142 46.938 3.25 46.938 L 48 47 L 48 48 C 19.948 48.211 5.063 48.221 2.438 48 C 1.33 48 0 46.42 0 45.312 L 0 2.219 C 0 1.111 1.298 -0.031 2.406 -0.031 L 48 0 Z " fill="rgb(30,30,30)"/><path d=" M 3 1 C 1.892 1 1 1.892 1 3 L 1 45 C 1 46.108 1.892 47 3 47 L 48 47 L 48 1 L 3 1 Z " fill="rgb(64,64,64)"/></g></g></svg>