<?xml version="1.0" standalone="no"?><!-- Generator: Gravit.io --><svg xmlns="http://www.w3.org/2000/svg" xmlns:xlink="http://www.w3.org/1999/xlink" style="isolation:isolate" viewBox="0 0 48 48" width="48" height="48"><defs><clipPath id="_clipPath_E2th101LPT7ZfH4qoSO0RqyQEKjelxr2"><rect width="48" height="48"/></clipPath></defs><g clip-path="url(#_clipPath_E2th101LPT7ZfH4qoSO0RqyQEKjelxr2)"><g id="g4136"><path d=" M 0 0 L 0 1 L 44.5 1 C 45.608 1 46.937 1.673 46.937 2.781 L 47 44.813 C 47 45.92 45.858 46.938 44.75 46.938 L 0 47 L 0 48 C 28.052 48.211 42.937 48.221 45.562 48 C 46.67 48 48 46.42 48 45.312 L 48 2.219 C 48 1.111 46.702 -0.031 45.594 -0.031 L 0 0 Z " fill="rgb(30,30,30)"/><path d=" M 45 1 C 46.108 1 47 1.892 47 3 L 47 45 C 47 46.108 46.108 47 45 47 L 0 47 L 0 1 L 45 1 Z " fill="rgb(64,64,64)"/></g></g></svg>