<?xml version="1.0" standalone="no"?><!-- Generator: Gravit.io --><svg xmlns="http://www.w3.org/2000/svg" xmlns:xlink="http://www.w3.org/1999/xlink" style="isolation:isolate" viewBox="0 0 32 32" width="32" height="32"><defs><clipPath id="_clipPath_8lV2ugJW0MU3HmA5ilo4xwTM6huqCWOv"><rect width="32" height="32"/></clipPath></defs><g clip-path="url(#_clipPath_8lV2ugJW0MU3HmA5ilo4xwTM6huqCWOv)"><g style="mix-blend-mode:normal;" opacity="0.81"><path d="M 6.5 4.5 L 25.5 4.5 C 26.604 4.5 27.5 5.396 27.5 6.5 L 27.5 24.5 C 27.5 25.604 26.604 26.5 25.5 26.5 L 6.5 26.5 C 5.396 26.5 4.5 25.604 4.5 24.5 L 4.5 6.5 C 4.5 5.396 5.396 4.5 6.5 4.5 Z" style="fill:none;stroke:#1E1E1E;stroke-width:1;stroke-linecap:round;"/></g><g style="mix-blend-mode:normal;" opacity="0.95"><path d="M 6.4 5 L 25.6 5 C 26.373 5 27 5.627 27 6.4 L 27 24.6 C 27 25.373 26.373 26 25.6 26 L 6.4 26 C 5.627 26 5 25.373 5 24.6 L 5 6.4 C 5 5.627 5.627 5 6.4 5 Z" style="stroke:none;fill:#3D3D3D;stroke-miterlimit:10;"/></g><g id="g4271" style="opacity:0.65;"><g style="mix-blend-mode:normal;" opacity="0.02000002"><path d="M 8.5 0.5 L 23.5 0.5 C 27.915 0.5 31.5 4.085 31.5 8.5 L 31.5 23.5 C 31.5 27.915 27.915 31.5 23.5 31.5 L 8.5 31.5 C 4.085 31.5 0.5 27.915 0.5 23.5 L 0.5 8.5 C 0.5 4.085 4.085 0.5 8.5 0.5 Z" style="fill:none;stroke:#000000;stroke-width:0.99999988;stroke-linecap:round;"/></g><g style="mix-blend-mode:normal;" opacity="0.07000002"><path d="M 8.5 1.5 L 23.5 1.5 C 27.363 1.5 30.5 4.637 30.5 8.5 L 30.5 23.5 C 30.5 27.363 27.363 30.5 23.5 30.5 L 8.5 30.5 C 4.637 30.5 1.5 27.363 1.5 23.5 L 1.5 8.5 C 1.5 4.637 4.637 1.5 8.5 1.5 Z" style="fill:none;stroke:#000000;stroke-width:0.99999982;stroke-linecap:round;"/></g><g style="mix-blend-mode:normal;" opacity="0.12999998"><path d="M 8.5 2.5 L 23.5 2.5 C 26.811 2.5 29.5 5.189 29.5 8.5 L 29.5 23.5 C 29.5 26.811 26.811 29.5 23.5 29.5 L 8.5 29.5 C 5.188 29.5 2.5 26.811 2.5 23.5 L 2.5 8.5 C 2.5 5.189 5.188 2.5 8.5 2.5 Z" style="fill:none;stroke:#000000;stroke-width:0.99999988;stroke-linecap:round;"/></g><g style="mix-blend-mode:normal;" opacity="0.2"><path d="M 8.5 3.5 L 23.5 3.5 C 26.26 3.5 28.5 5.74 28.5 8.5 L 28.5 23.5 C 28.5 26.26 26.26 28.5 23.5 28.5 L 8.5 28.5 C 5.74 28.5 3.5 26.26 3.5 23.5 L 3.5 8.5 C 3.5 5.74 5.74 3.5 8.5 3.5 Z" style="fill:none;stroke:#000000;stroke-width:1;stroke-linecap:round;"/></g><g opacity="0.25"><path d=" M 5.648 26.305 C 6.373 27.042 7.38 27.5 8.5 27.5 L 23.5 27.5 C 24.62 27.5 25.627 27.042 26.352 26.305 C 26.093 26.427 25.807 26.5 25.5 26.5 L 6.5 26.5 C 6.194 26.5 5.908 26.427 5.648 26.305 Z " fill="none" vector-effect="non-scaling-stroke" stroke-width="1" stroke="rgb(0,0,0)" stroke-linejoin="miter" stroke-linecap="round" stroke-miterlimit="4"/></g></g></g></svg>