<?xml version="1.0" standalone="no"?><!-- Generator: Gravit.io --><svg xmlns="http://www.w3.org/2000/svg" xmlns:xlink="http://www.w3.org/1999/xlink" style="isolation:isolate" viewBox="0 0 30 30" width="30" height="30"><defs><clipPath id="_clipPath_mGfiAS1agywb7NJt2Zy1r98Ilu6bTzUE"><rect width="30" height="30"/></clipPath></defs><g clip-path="url(#_clipPath_mGfiAS1agywb7NJt2Zy1r98Ilu6bTzUE)"><clipPath id="_clipPath_EoKE2FhYVW8kPnlg03Y9RhaQB4JV88nQ"><rect x="0" y="0" width="30" height="30" transform="matrix(1,0,0,1,0,0)" fill="rgb(255,255,255)"/></clipPath><g clip-path="url(#_clipPath_EoKE2FhYVW8kPnlg03Y9RhaQB4JV88nQ)"><g id="Group"><g opacity="0"><rect x="0" y="0" width="30" height="30" transform="matrix(1,0,0,1,0,0)" fill="rgb(0,0,0)"/></g><clipPath id="_clipPath_euglf1rZ6P1JZi0MF9UG0tcJsh7tiVeR"><rect x="0" y="0" width="30" height="30" transform="matrix(1,0,0,1,0,0)" fill="rgb(255,255,255)"/></clipPath><g clip-path="url(#_clipPath_euglf1rZ6P1JZi0MF9UG0tcJsh7tiVeR)"><g id="Group"><g id="Group"><g opacity="0"><rect x="0" y="-0.054" width="30.082" height="30.136" transform="matrix(1,0,0,1,0,0)" fill="rgb(64,64,64)"/></g><g id="g56"><g id="id3"><path d=" M 17.495 27.583 C 17.495 27.991 17.422 28.323 17.236 28.62 C 17.051 28.953 16.829 29.175 16.496 29.361 C 16.199 29.546 15.865 29.62 15.459 29.62 C 15.125 29.62 14.792 29.546 14.495 29.361 C 14.161 29.175 13.94 28.953 13.755 28.62 C 13.569 28.323 13.495 27.991 13.495 27.583 C 13.495 27.25 13.569 26.916 13.755 26.621 C 13.94 26.287 14.161 26.064 14.495 25.879 C 14.792 25.694 15.125 25.62 15.459 25.62 C 15.865 25.62 16.199 25.694 16.496 25.879 C 16.829 26.064 17.051 26.287 17.236 26.621 C 17.422 26.916 17.495 27.25 17.495 27.583 Z " fill-rule="evenodd" fill="rgb(153,153,153)"/></g></g></g></g></g></g></g></g></svg>