#define max_toggled_width 12
#define max_toggled_height 12
static unsigned char max_toggled_bits[] = {
   0x00, 0x00, 0x00, 0x00, 0xf0, 0x03, 0xe0, 0x03, 0x04, 0x03, 0x0c, 0x03,
   0x0c, 0x03, 0x0c, 0x02, 0x7c, 0x00, 0xfc, 0x00, 0x00, 0x00, 0x00, 0x00 };
