<?xml version="1.0" standalone="no"?><!-- Generator: Gravit.io --><svg xmlns="http://www.w3.org/2000/svg" xmlns:xlink="http://www.w3.org/1999/xlink" style="isolation:isolate" viewBox="0 0 32 32" width="32" height="32"><defs><clipPath id="_clipPath_5Whr77DegKeRkqeGbDmEPrgFXWWQlQWy"><rect width="32" height="32"/></clipPath></defs><g clip-path="url(#_clipPath_5Whr77DegKeRkqeGbDmEPrgFXWWQlQWy)"><path d="M 2 0.5 L 30 0.5 C 30.828 0.5 31.5 1.172 31.5 2 L 31.5 30 C 31.5 30.828 30.828 31.5 30 31.5 L 2 31.5 C 1.172 31.5 0.5 30.828 0.5 30 L 0.5 2 C 0.5 1.172 1.172 0.5 2 0.5 Z" style="stroke:none;fill:#000000;stroke-miterlimit:10;opacity:0.15294118;"/><path d="M 2 0.5 L 30 0.5 C 30.828 0.5 31.5 1.172 31.5 2 L 31.5 30 C 31.5 30.828 30.828 31.5 30 31.5 L 2 31.5 C 1.172 31.5 0.5 30.828 0.5 30 L 0.5 2 C 0.5 1.172 1.172 0.5 2 0.5 Z" style="fill:none;stroke:#000000;stroke-width:0.9999999087500031;stroke-linecap:round;opacity:0.38039216;"/><path d=" M 2.5 1 L 3 1 L 3 31 L 2.5 31 C 1.669 31 1 30.331 1 29.5 L 1 2.5 C 1 1.669 1.669 1 2.5 1 Z " fill="rgb(120,120,120)"/></g></svg>