<?xml version="1.0" standalone="no"?><!-- Generator: Gravit.io --><svg xmlns="http://www.w3.org/2000/svg" xmlns:xlink="http://www.w3.org/1999/xlink" style="isolation:isolate" viewBox="0 0 35 200" width="35" height="200"><defs><clipPath id="_clipPath_xCwakyFBrlescnB5DSjfB6Zv2MEGu986"><rect width="35" height="200"/></clipPath></defs><g clip-path="url(#_clipPath_xCwakyFBrlescnB5DSjfB6Zv2MEGu986)"><g opacity="0.45"><path d=" M 3.063 0 C 1.401 0 0.063 1.338 0.063 3 L 0.063 197 C 0.063 198.662 1.401 200 3.063 200 L 36.063 200 C 37.724 200 39.063 198.662 39.063 197 L 39.063 3 C 39.063 1.338 37.724 0 36.063 0 L 3.063 0 Z  M 3.063 1 L 36.063 1 C 37.171 1 38.063 1.892 38.063 3 L 38.063 197 C 38.063 198.108 37.171 199 36.063 199 L 3.063 199 C 1.955 199 1.063 198.108 1.063 197 L 1.063 3 C 1.063 1.892 1.955 1 3.063 1 Z " fill="rgb(0,0,0)"/></g><g style="mix-blend-mode:normal;" opacity="0.2"><path d="M 3 1 L 36 1 C 37.104 1 38 1.896 38 3 L 38 197 C 38 198.104 37.104 199 36 199 L 3 199 C 1.896 199 1 198.104 1 197 L 1 3 C 1 1.896 1.896 1 3 1 Z" style="stroke:none;fill:#FFFFFF;stroke-miterlimit:10;"/></g><g id="g3917"><path d="M 18 92 L 18 92 C 18.552 92 19 92.448 19 93 L 19 107 C 19 107.552 18.552 108 18 108 L 18 108 C 17.448 108 17 107.552 17 107 L 17 93 C 17 92.448 17.448 92 18 92 Z" style="stroke:none;fill:#BABABA;stroke-miterlimit:10;"/><path d="M 26 100 L 26 100 C 26 100.552 25.552 101 25 101 L 11 101 C 10.448 101 10 100.552 10 100 L 10 100 C 10 99.448 10.448 99 11 99 L 25 99 C 25.552 99 26 99.448 26 100 Z" style="stroke:none;fill:#BABABA;stroke-miterlimit:10;"/></g></g></svg>