<?xml version="1.0" standalone="no"?><!-- Generator: Gravit.io --><svg xmlns="http://www.w3.org/2000/svg" xmlns:xlink="http://www.w3.org/1999/xlink" style="isolation:isolate" viewBox="0 0 32 32" width="32" height="32"><defs><clipPath id="_clipPath_cBYdQ9H2PoQvsHyZDt9cQt4cxhscfGFf"><rect width="32" height="32"/></clipPath></defs><g clip-path="url(#_clipPath_cBYdQ9H2PoQvsHyZDt9cQt4cxhscfGFf)"><clipPath id="_clipPath_JOu9MB6dURJgxa4WAQMRoXqVjVHp1abE"><rect x="0.031" y="0" width="32" height="32" transform="matrix(1,0,0,1,0,0)" fill="rgb(255,255,255)"/></clipPath><g clip-path="url(#_clipPath_JOu9MB6dURJgxa4WAQMRoXqVjVHp1abE)"><g id="Group"><g opacity="0.14"><path d=" M 2.701 0.5 L 29.361 0.5 C 30.559 0.5 31.531 1.472 31.531 2.67 L 31.531 29.33 C 31.531 30.528 30.559 31.5 29.361 31.5 L 2.701 31.5 C 1.503 31.5 0.531 30.528 0.531 29.33 L 0.531 2.67 C 0.531 1.472 1.503 0.5 2.701 0.5 Z " fill="rgb(0,0,0)" vector-effect="non-scaling-stroke" stroke-width="1" stroke="rgb(137,137,137)" stroke-linejoin="miter" stroke-linecap="butt" stroke-miterlimit="10"/></g></g></g><path d=" M 2.67 0.5 L 29.33 0.5 C 30.528 0.5 31.5 1.472 31.5 2.67 L 31.5 29.33 C 31.5 30.528 30.528 31.5 29.33 31.5 L 2.67 31.5 C 1.472 31.5 0.5 30.528 0.5 29.33 L 0.5 2.67 C 0.5 1.472 1.472 0.5 2.67 0.5 Z " fill="none" vector-effect="non-scaling-stroke" stroke-width="1" stroke="rgb(24,24,24)" stroke-linejoin="miter" stroke-linecap="round" stroke-miterlimit="4"/></g></svg>