<?xml version="1.0" standalone="no"?><!-- Generator: Gravit.io --><svg xmlns="http://www.w3.org/2000/svg" xmlns:xlink="http://www.w3.org/1999/xlink" style="isolation:isolate" viewBox="0 0 16 16" width="16" height="16"><defs><clipPath id="_clipPath_qt1TP8VUDBwNO5UgDFJjHd3qMN7gZLCd"><rect width="16" height="16"/></clipPath></defs><g clip-path="url(#_clipPath_qt1TP8VUDBwNO5UgDFJjHd3qMN7gZLCd)"><clipPath id="_clipPath_8FF1dvVT5AJ2VkImQZtgECkcWid8bZwC"><rect x="0" y="0" width="16" height="16" transform="matrix(1,0,0,1,0,0)" fill="rgb(255,255,255)"/></clipPath><g clip-path="url(#_clipPath_8FF1dvVT5AJ2VkImQZtgECkcWid8bZwC)"><g id="Group"><g id="Group"><g id="g7146"><g id="Group"><g id="Group"><g id="Group"><path d=" M 6.131 7.579 L 6.144 9.888 L 8.443 9.902 L 10.273 11.77 Q 4.26 11.797 4.273 11.797 Q 4.292 11.797 4.293 5.797 L 6.131 7.579 Z " fill-rule="evenodd" fill="rgb(128,128,128)"/><path d=" M 10.416 8.015 L 10.402 5.706 L 8.104 5.692 L 6.273 3.824 Q 12.287 3.797 12.273 3.797 Q 12.254 3.797 12.254 9.797 L 10.416 8.015 Z " fill-rule="evenodd" fill="rgb(128,128,128)"/></g></g></g></g></g><rect x="0" y="0" width="16" height="16" transform="matrix(1,0,0,1,0,0)" fill="none"/></g></g></g></svg>