<?xml version="1.0" encoding="UTF-8" standalone="no"?>
<svg
   xmlns:dc="http://purl.org/dc/elements/1.1/"
   xmlns:cc="http://creativecommons.org/ns#"
   xmlns:rdf="http://www.w3.org/1999/02/22-rdf-syntax-ns#"
   xmlns:svg="http://www.w3.org/2000/svg"
   xmlns="http://www.w3.org/2000/svg"
   xmlns:sodipodi="http://sodipodi.sourceforge.net/DTD/sodipodi-0.dtd"
   xmlns:inkscape="http://www.inkscape.org/namespaces/inkscape"
   height="25"
   width="28"
   version="1.1"
   id="svg13"
   sodipodi:docname="calendar-today-event.svg"
   inkscape:version="0.92.2 2405546, 2018-03-11">
  <metadata
     id="metadata17">
    <rdf:RDF>
      <cc:Work
         rdf:about="">
        <dc:format>image/svg+xml</dc:format>
        <dc:type
           rdf:resource="http://purl.org/dc/dcmitype/StillImage" />
        <dc:title></dc:title>
      </cc:Work>
    </rdf:RDF>
  </metadata>
  <sodipodi:namedview
     pagecolor="#404040"
     bordercolor="#666666"
     borderopacity="1"
     objecttolerance="10"
     gridtolerance="10"
     guidetolerance="10"
     inkscape:pageopacity="0"
     inkscape:pageshadow="2"
     inkscape:window-width="1668"
     inkscape:window-height="1195"
     id="namedview15"
     showgrid="false"
     inkscape:zoom="9.44"
     inkscape:cx="12.199153"
     inkscape:cy="12.341102"
     inkscape:window-x="607"
     inkscape:window-y="55"
     inkscape:window-maximized="0"
     inkscape:current-layer="svg13" />
  <defs
     id="defs7">
    <radialGradient
       id="a"
       stop-color="#fff"
       gradientUnits="userSpaceOnUse"
       cy="30"
       cx="51"
       gradientTransform="matrix(0.31522,0,0,0.42757986,-1.7714153,12.196283)"
       r="42">
      <stop
         offset="0"
         id="stop2" />
      <stop
         stop-opacity="0"
         offset="1"
         id="stop4" />
    </radialGradient>
  </defs>
  <path
     style="color:#000000;opacity:0;fill:url(#a);stroke-width:1.06242406"
     d="m -4.0455153,25.023338 a 18.351,24.892211 0 1 1 36.7010003,0 h -18.35 z"
     id="path9"
     inkscape:connector-curvature="0" />
  <g
     transform="matrix(1.25,0,0,1.25,-5.0637652,-12.249577)"
     style="isolation:isolate;fill:#999999"
     id="g56">
    <g
       id="id3"
       style="fill:#999999">
      <path
         style="fill:#999999;fill-rule:evenodd"
         inkscape:connector-curvature="0"
         id="path9-1"
         d="m 17.495,27.583 c 0,0.408 -0.073,0.74 -0.259,1.037 -0.185,0.333 -0.407,0.555 -0.74,0.741 -0.297,0.185 -0.631,0.259 -1.037,0.259 -0.334,0 -0.667,-0.074 -0.964,-0.259 -0.334,-0.186 -0.555,-0.408 -0.74,-0.741 -0.186,-0.297 -0.26,-0.629 -0.26,-1.037 0,-0.333 0.074,-0.667 0.26,-0.962 0.185,-0.334 0.406,-0.557 0.74,-0.742 0.297,-0.185 0.63,-0.259 0.964,-0.259 0.406,0 0.74,0.074 1.037,0.259 0.333,0.185 0.555,0.408 0.74,0.742 0.186,0.295 0.259,0.629 0.259,0.962 z" />
    </g>
  </g>
</svg>
