<?xml version="1.0" standalone="no"?><!-- Generator: Gravit.io --><svg xmlns="http://www.w3.org/2000/svg" xmlns:xlink="http://www.w3.org/1999/xlink" style="isolation:isolate" viewBox="0 0 16 16" width="16" height="16"><defs><clipPath id="_clipPath_uoYH9QB6r8y4DqObLvW8ZU4QjgwssOr4"><rect width="16" height="16"/></clipPath></defs><g clip-path="url(#_clipPath_uoYH9QB6r8y4DqObLvW8ZU4QjgwssOr4)"><g><path d=" M 6.177 4 C 6.212 4 6.246 4.003 6.28 4.009 C 6.431 4.025 6.571 4.091 6.679 4.196 L 10.038 7.521 L 10.5 7.999 L 10.038 8.477 L 6.679 11.802 C 6.497 11.982 6.227 12.046 5.981 11.965 C 5.944 11.979 5.903 11.988 5.861 11.988 C 5.675 11.988 5.525 11.84 5.525 11.656 C 5.525 11.614 5.534 11.574 5.548 11.537 C 5.467 11.294 5.531 11.026 5.714 10.846 L 8.59 7.999 L 5.714 5.152 C 5.514 4.968 5.447 4.683 5.543 4.431 C 5.535 4.402 5.525 4.373 5.525 4.341 C 5.525 4.157 5.674 4.009 5.86 4.009 C 5.9 4.009 5.937 4.019 5.972 4.031 C 6.038 4.01 6.107 4 6.177 4 L 6.177 4 Z " fill="rgb(255,255,255)"/></g></g></svg>