<?xml version="1.0" standalone="no"?><!-- Generator: Gravit.io --><svg xmlns="http://www.w3.org/2000/svg" xmlns:xlink="http://www.w3.org/1999/xlink" style="isolation:isolate" viewBox="0 0 32 84" width="32" height="84"><defs><clipPath id="_clipPath_mRzGGiPFvGrhiUacJPHRqCHQ0m5jI8Rh"><rect width="32" height="84"/></clipPath></defs><g clip-path="url(#_clipPath_mRzGGiPFvGrhiUacJPHRqCHQ0m5jI8Rh)"><g style="mix-blend-mode:normal;" opacity="0.64"><path d="M 7.49 4.501 L 24.51 4.501 C 26.16 4.501 27.5 5.84 27.5 7.491 L 27.5 75.51 C 27.5 77.16 26.16 78.5 24.51 78.5 L 7.49 78.5 C 5.84 78.5 4.5 77.16 4.5 75.51 L 4.5 7.491 C 4.5 5.84 5.84 4.501 7.49 4.501 Z" style="fill:none;stroke:#000000;stroke-width:0.99999988;stroke-linecap:round;"/></g><clipPath id="_clipPath_keklzmucUdMf3JT8aGfcdKWvcmhlUZLn"><path d="M -2.816 39 L 34.816 39 C 36.297 39 37.5 37.797 37.5 36.316 L 37.5 -2.16 C 37.5 -3.641 36.297 -4.844 34.816 -4.844 L -2.816 -4.844 C -4.297 -4.844 -5.5 -3.641 -5.5 -2.16 L -5.5 36.316 C -5.5 37.797 -4.297 39 -2.816 39 Z" style="stroke:black;fill:white;stroke-miterlimit:10;"/></clipPath><g clip-path="url(#_clipPath_keklzmucUdMf3JT8aGfcdKWvcmhlUZLn)"><path d="M 7.505 5 L 24.495 5 C 25.877 5 27 6.123 27 7.505 L 27 40.075 C 27 41.458 25.877 42.58 24.495 42.58 L 7.505 42.58 C 6.123 42.58 5 41.458 5 40.075 L 5 7.505 C 5 6.123 6.123 5 7.505 5 Z" style="stroke:none;fill:#3B3B3B;stroke-miterlimit:10;"/></g><g id="g4271" style="opacity:0.64999999;"><g style="mix-blend-mode:normal;" opacity="0.02"><path d="M 8.5 0.5 L 23.5 0.5 C 27.915 0.5 31.5 4.085 31.5 8.5 L 31.5 75.5 C 31.5 79.915 27.915 83.5 23.5 83.5 L 8.5 83.5 C 4.085 83.5 0.5 79.915 0.5 75.5 L 0.5 8.5 C 0.5 4.085 4.085 0.5 8.5 0.5 Z" style="fill:none;stroke:#000000;stroke-width:0.99999988;stroke-linecap:round;"/></g><g style="mix-blend-mode:normal;" opacity="0.07"><path d="M 8.5 1.5 L 23.5 1.5 C 27.363 1.5 30.5 4.637 30.5 8.5 L 30.5 75.5 C 30.5 79.363 27.363 82.5 23.5 82.5 L 8.5 82.5 C 4.637 82.5 1.5 79.363 1.5 75.5 L 1.5 8.5 C 1.5 4.637 4.637 1.5 8.5 1.5 Z" style="fill:none;stroke:#000000;stroke-width:0.99999982;stroke-linecap:round;"/></g><g style="mix-blend-mode:normal;" opacity="0.13"><path d="M 8.5 2.5 L 23.5 2.5 C 26.811 2.5 29.5 5.189 29.5 8.5 L 29.5 75.5 C 29.5 78.812 26.811 81.5 23.5 81.5 L 8.5 81.5 C 5.188 81.5 2.5 78.812 2.5 75.5 L 2.5 8.5 C 2.5 5.189 5.188 2.5 8.5 2.5 Z" style="fill:none;stroke:#000000;stroke-width:0.99999988;stroke-linecap:round;"/></g><g style="mix-blend-mode:normal;" opacity="0.2"><path d="M 8.5 3.5 L 23.5 3.5 C 26.26 3.5 28.5 5.74 28.5 8.5 L 28.5 75.5 C 28.5 78.26 26.26 80.5 23.5 80.5 L 8.5 80.5 C 5.74 80.5 3.5 78.26 3.5 75.5 L 3.5 8.5 C 3.5 5.74 5.74 3.5 8.5 3.5 Z" style="fill:none;stroke:#000000;stroke-width:1;stroke-linecap:round;"/></g><g opacity="0.25"><path d=" M 5.648 78.305 C 6.373 79.042 7.38 79.5 8.5 79.5 L 23.5 79.5 C 24.62 79.5 25.627 79.042 26.352 78.305 C 26.093 78.427 25.807 78.5 25.5 78.5 L 6.5 78.5 C 6.194 78.5 5.908 78.427 5.648 78.305 Z " fill="none" vector-effect="non-scaling-stroke" stroke-width="1" stroke="rgb(0,0,0)" stroke-linejoin="miter" stroke-linecap="round" stroke-miterlimit="4"/></g></g></g></svg>