<?xml version="1.0" standalone="no"?><!-- Generator: Gravit.io --><svg xmlns="http://www.w3.org/2000/svg" xmlns:xlink="http://www.w3.org/1999/xlink" style="isolation:isolate" viewBox="0 0 16 16" width="16" height="16"><defs><clipPath id="_clipPath_t4ZptloSc6LS38xelL8E26uwFANJgHwN"><rect width="16" height="16"/></clipPath></defs><g clip-path="url(#_clipPath_t4ZptloSc6LS38xelL8E26uwFANJgHwN)"><clipPath id="_clipPath_ZWXcynvyXuICq9m9F0dQTieoqsqU8WYl"><rect x="0" y="0" width="16" height="16" transform="matrix(1,0,0,1,0,0)" fill="rgb(255,255,255)"/></clipPath><g clip-path="url(#_clipPath_ZWXcynvyXuICq9m9F0dQTieoqsqU8WYl)"><g id="Group"><clipPath id="_clipPath_UdUAGBYJxMkhXcoWMjqTHTJwvCoMfgMN"><rect x="0" y="0" width="16" height="16" transform="matrix(1,0,0,1,0,0)" fill="rgb(255,255,255)"/></clipPath><g clip-path="url(#_clipPath_UdUAGBYJxMkhXcoWMjqTHTJwvCoMfgMN)"><g id="Group"><g id="Group"><g id="checkbox-checked-dark"><g id="checkbox-unchecked-5-59"><g id="sdsd-7-54"><g id="scdsdcd-5-8"><rect x="0.045" y="-0.03" width="16" height="16" transform="matrix(1,0,0,1,0,0)" fill="none"/><g id="g5400-6-68"><linearGradient id="_lgradient_1" x1="0%" y1="50%" x2="6.123233995736766e-15%" y2="-50%"><stop offset="50%" stop-opacity="1" style="stop-color:rgb(154,154,154)"/></linearGradient><path d=" M 3.06 1 L 13.06 1 C 14.164 1 15.06 1.896 15.06 3 L 15.06 13 C 15.06 14.104 14.164 15 13.06 15 L 3.06 15 C 1.956 15 1.06 14.104 1.06 13 L 1.06 3 C 1.06 1.896 1.956 1 3.06 1 Z " fill="url(#_lgradient_1)"/><path d=" M 5.03 6.46 L 7.904 9.395 C 8.268 9.768 8.25 10.357 7.865 10.708 L 7.778 10.786 C 7.393 11.138 6.785 11.121 6.421 10.748 L 3.547 7.812 C 3.183 7.439 3.13 6.852 3.516 6.5 L 3.602 6.422 C 3.988 6.07 4.666 6.087 5.03 6.46 Z " fill="rgb(32,32,32)"/><path d=" M 3.06 1 L 13.06 1 C 14.164 1 15.06 1.896 15.06 3 L 15.06 13 C 15.06 14.104 14.164 15 13.06 15 L 3.06 15 C 1.956 15 1.06 14.104 1.06 13 L 1.06 3 C 1.06 1.896 1.956 1 3.06 1 Z " fill="none" vector-effect="non-scaling-stroke" stroke-width="1" stroke="rgb(32,32,32)" stroke-opacity="100" stroke-linejoin="round" stroke-linecap="butt" stroke-miterlimit="4"/></g></g></g></g><g id="checkbox-checked-dark-7-37"><g id="g4049-2-5"><g id="g4056-7-6"><g id="g3981-0-8"><path d=" M 12.987 5.472 L 7.761 10.784 C 7.41 11.141 6.835 11.146 6.478 10.794 L 6.346 10.665 C 5.989 10.314 5.984 9.738 6.336 9.381 L 11.562 4.069 C 11.913 3.712 12.488 3.708 12.845 4.059 L 12.977 4.189 C 13.334 4.54 13.339 5.115 12.987 5.472 Z " fill="rgb(32,32,32)"/></g></g></g></g></g></g></g></g></g></g></g></svg>