<?xml version="1.0" standalone="no"?><!-- Generator: Gravit.io --><svg xmlns="http://www.w3.org/2000/svg" xmlns:xlink="http://www.w3.org/1999/xlink" style="isolation:isolate" viewBox="0 0 60.619 25" width="60.619" height="25"><defs><clipPath id="_clipPath_eh8VjavAyZwc3rgg5Q4jy6s5GZszx9lF"><rect width="60.619" height="25"/></clipPath></defs><g clip-path="url(#_clipPath_eh8VjavAyZwc3rgg5Q4jy6s5GZszx9lF)"><path d="M 4.784 1.5 L 55.835 1.5 C 57.648 1.5 59.119 2.971 59.119 4.784 L 59.119 20.216 C 59.119 22.029 57.648 23.5 55.835 23.5 L 4.784 23.5 C 2.971 23.5 1.5 22.029 1.5 20.216 L 1.5 4.784 C 1.5 2.971 2.971 1.5 4.784 1.5 Z" style="stroke:none;fill:#838383;stroke-miterlimit:10;"/><path d="M 4.784 1.5 L 55.835 1.5 C 57.648 1.5 59.119 2.971 59.119 4.784 L 59.119 20.216 C 59.119 22.029 57.648 23.5 55.835 23.5 L 4.784 23.5 C 2.971 23.5 1.5 22.029 1.5 20.216 L 1.5 4.784 C 1.5 2.971 2.971 1.5 4.784 1.5 Z" style="fill:none;stroke:#050505;stroke-width:1;stroke-linecap:square;stroke-miterlimit:3;"/><path d="M 32.878 3.595 L 55.085 3.595 C 56.184 3.595 57.077 4.488 57.077 5.587 L 57.077 19.413 C 57.077 20.512 56.184 21.405 55.085 21.405 L 32.878 21.405 C 31.779 21.405 30.886 20.512 30.886 19.413 L 30.886 5.587 C 30.886 4.488 31.779 3.595 32.878 3.595 Z" style="stroke:none;fill:#323232;stroke-linecap:square;stroke-miterlimit:3;"/><g opacity="0.95"><rect x="15.151" y="6.214" width="2.619" height="12.571" transform="matrix(1,0,0,1,0,0)" fill="rgb(255,255,255)"/></g></g></svg>