<?xml version="1.0" standalone="no"?><!-- Generator: Gravit.io --><svg xmlns="http://www.w3.org/2000/svg" xmlns:xlink="http://www.w3.org/1999/xlink" style="isolation:isolate" viewBox="0 0 60.619 25" width="60.619" height="25"><defs><clipPath id="_clipPath_G678PZslPY0kYns4sDUhWtSMWJnccmYx"><rect width="60.619" height="25"/></clipPath></defs><g clip-path="url(#_clipPath_G678PZslPY0kYns4sDUhWtSMWJnccmYx)"><path d="M 4.784 1.5 L 55.835 1.5 C 57.648 1.5 59.119 2.971 59.119 4.784 L 59.119 20.216 C 59.119 22.029 57.648 23.5 55.835 23.5 L 4.784 23.5 C 2.971 23.5 1.5 22.029 1.5 20.216 L 1.5 4.784 C 1.5 2.971 2.971 1.5 4.784 1.5 Z" style="stroke:none;fill:#686868;stroke-miterlimit:10;"/><path d="M 4.784 1.5 L 55.835 1.5 C 57.648 1.5 59.119 2.971 59.119 4.784 L 59.119 20.216 C 59.119 22.029 57.648 23.5 55.835 23.5 L 4.784 23.5 C 2.971 23.5 1.5 22.029 1.5 20.216 L 1.5 4.784 C 1.5 2.971 2.971 1.5 4.784 1.5 Z" style="fill:none;stroke:#050505;stroke-width:1;stroke-linecap:square;stroke-miterlimit:3;"/><g opacity="0.65"><path d=" M 39.73 12.5 C 39.73 9.609 42.077 7.262 44.968 7.262 C 47.859 7.262 50.206 9.609 50.206 12.5 C 50.206 15.391 47.859 17.738 44.968 17.738 C 42.077 17.738 39.73 15.391 39.73 12.5 Z " fill="none" vector-effect="non-scaling-stroke" stroke-width="2" stroke="rgb(255,255,255)" stroke-opacity="100" stroke-linejoin="miter" stroke-linecap="square" stroke-miterlimit="3"/></g><path d="M 6.164 3.595 L 28.371 3.595 C 29.47 3.595 30.363 4.488 30.363 5.587 L 30.363 19.413 C 30.363 20.512 29.47 21.405 28.371 21.405 L 6.164 21.405 C 5.065 21.405 4.172 20.512 4.172 19.413 L 4.172 5.587 C 4.172 4.488 5.065 3.595 6.164 3.595 Z" style="stroke:none;fill:#323232;stroke-linecap:square;stroke-miterlimit:3;"/></g></svg>