<?xml version="1.0" standalone="no"?><!-- Generator: Gravit.io --><svg xmlns="http://www.w3.org/2000/svg" xmlns:xlink="http://www.w3.org/1999/xlink" style="isolation:isolate" viewBox="0 0 32 32" width="32" height="32"><defs><clipPath id="_clipPath_8a15uZdZnT9Djoc6emXgnnkfL6ko5DCq"><rect width="32" height="32"/></clipPath></defs><g clip-path="url(#_clipPath_8a15uZdZnT9Djoc6emXgnnkfL6ko5DCq)"><clipPath id="_clipPath_iu1hCG4usPXgpMopbMBfoYll88oSqVvw"><rect x="0" y="0" width="32" height="32" transform="matrix(1,0,0,1,0,0)" fill="rgb(255,255,255)"/></clipPath><g clip-path="url(#_clipPath_iu1hCG4usPXgpMopbMBfoYll88oSqVvw)"><g id="Group"><g opacity="0.2"><path d=" M 2.825 0.5 L 29.175 0.5 C 30.458 0.5 31.5 1.542 31.5 2.825 L 31.5 29.175 C 31.5 30.458 30.458 31.5 29.175 31.5 L 2.825 31.5 C 1.542 31.5 0.5 30.458 0.5 29.175 L 0.5 2.825 C 0.5 1.542 1.542 0.5 2.825 0.5 Z " fill="rgb(0,0,0)"/></g></g></g><path d=" M 2.67 0.5 L 29.33 0.5 C 30.528 0.5 31.5 1.472 31.5 2.67 L 31.5 29.33 C 31.5 30.528 30.528 31.5 29.33 31.5 L 2.67 31.5 C 1.472 31.5 0.5 30.528 0.5 29.33 L 0.5 2.67 C 0.5 1.472 1.472 0.5 2.67 0.5 Z " fill="none" vector-effect="non-scaling-stroke" stroke-width="1" stroke="rgb(24,24,24)" stroke-linejoin="miter" stroke-linecap="round" stroke-miterlimit="4"/></g></svg>