<?xml version="1.0" standalone="no"?><!-- Generator: Gravit.io --><svg xmlns="http://www.w3.org/2000/svg" xmlns:xlink="http://www.w3.org/1999/xlink" style="isolation:isolate" viewBox="0 0 16 16" width="16" height="16"><defs><clipPath id="_clipPath_SoG4ylrcTj00cmKqLkGdiMh2JNqSmder"><rect width="16" height="16"/></clipPath></defs><g clip-path="url(#_clipPath_SoG4ylrcTj00cmKqLkGdiMh2JNqSmder)"><clipPath id="_clipPath_9PUGFjVT5fwEPmLladJFCx26EWPRVN56"><rect x="0" y="0" width="16" height="16" transform="matrix(1,0,0,1,0,0)" fill="rgb(255,255,255)"/></clipPath><g clip-path="url(#_clipPath_9PUGFjVT5fwEPmLladJFCx26EWPRVN56)"><g id="Group"><clipPath id="_clipPath_1D6vvKQT5sJVWQjcP8AsyStft0nhAlCz"><rect x="0" y="0" width="16" height="16" transform="matrix(1,0,0,1,0,0)" fill="rgb(255,255,255)"/></clipPath><g clip-path="url(#_clipPath_1D6vvKQT5sJVWQjcP8AsyStft0nhAlCz)"><g id="Group"><g id="Group"><g id="checkbox-checked-dark"><g id="checkbox-unchecked-5-59"><g id="sdsd-7-54"><g id="scdsdcd-5-8"><rect x="0.045" y="-0.03" width="16" height="16" transform="matrix(1,0,0,1,0,0)" fill="none"/><g id="g5400-6-68"><linearGradient id="_lgradient_2" x1="0%" y1="50%" x2="6.123233995736766e-15%" y2="-50%"><stop offset="50%" stop-opacity="1" style="stop-color:rgb(154,154,154)"/></linearGradient><path d=" M 3.06 1 L 13.06 1 C 14.164 1 15.06 1.896 15.06 3 L 15.06 13 C 15.06 14.104 14.164 15 13.06 15 L 3.06 15 C 1.956 15 1.06 14.104 1.06 13 L 1.06 3 C 1.06 1.896 1.956 1 3.06 1 Z " fill="url(#_lgradient_2)"/><path d=" M 3.06 1 L 13.06 1 C 14.164 1 15.06 1.896 15.06 3 L 15.06 13 C 15.06 14.104 14.164 15 13.06 15 L 3.06 15 C 1.956 15 1.06 14.104 1.06 13 L 1.06 3 C 1.06 1.896 1.956 1 3.06 1 Z " fill="none" vector-effect="non-scaling-stroke" stroke-width="1" stroke="rgb(32,32,32)" stroke-opacity="100" stroke-linejoin="round" stroke-linecap="butt" stroke-miterlimit="4"/></g></g></g></g></g></g></g></g></g></g></g></svg>