<?xml version="1.0" standalone="no"?><!-- Generator: Gravit.io --><svg xmlns="http://www.w3.org/2000/svg" xmlns:xlink="http://www.w3.org/1999/xlink" style="isolation:isolate" viewBox="0 0 16 16" width="16" height="16"><defs><clipPath id="_clipPath_gTJHueoJV3h0zyGncTY31Qe89Zk7RnI5"><rect width="16" height="16"/></clipPath></defs><g clip-path="url(#_clipPath_gTJHueoJV3h0zyGncTY31Qe89Zk7RnI5)"><g><path d=" M 9.823 3.938 C 9.788 3.938 9.754 3.941 9.719 3.947 C 9.569 3.963 9.429 4.029 9.321 4.134 L 5.962 7.458 L 5.5 7.936 L 5.962 8.414 L 9.321 11.739 C 9.503 11.92 9.773 11.983 10.019 11.903 C 10.056 11.917 10.097 11.926 10.139 11.926 C 10.325 11.926 10.475 11.778 10.475 11.593 C 10.475 11.551 10.466 11.511 10.452 11.474 C 10.533 11.231 10.469 10.964 10.286 10.783 L 7.41 7.936 L 10.286 5.089 C 10.485 4.905 10.553 4.621 10.457 4.369 C 10.465 4.339 10.475 4.311 10.475 4.279 C 10.475 4.095 10.326 3.946 10.139 3.946 C 10.1 3.946 10.063 3.956 10.028 3.968 C 9.962 3.948 9.893 3.937 9.823 3.938 L 9.823 3.938 Z " fill="rgb(255,255,255)"/></g></g></svg>